<svg xmlns="http://www.w3.org/2000/svg" xmlns:xlink="http://www.w3.org/1999/xlink" width="1000" zoomAndPan="magnify" viewBox="0 0 750 225" height="300" preserveAspectRatio="xMidYMid meet" version="1.0"><defs><g/><clipPath id="52dd66450e"><path d="M 74 27 L 190.574219 27 L 190.574219 199 L 74 199 Z M 74 27 " clip-rule="nonzero"/></clipPath></defs><g clip-path="url(#52dd66450e)"><path fill="#5e17eb" d="M 191.167969 113.886719 L 109.667969 31.554688 C 93.925781 15.652344 61.597656 45.070312 80.558594 63.574219 L 132.121094 113.886719 L 78.898438 163.367188 C 62.691406 178.433594 92.710938 209.355469 108.835938 193.722656 Z M 191.167969 113.886719 " fill-opacity="1" fill-rule="nonzero"/></g><path fill="#5e17eb" d="M 97.964844 113.261719 L 52.191406 67.019531 C 43.347656 58.085938 25.191406 74.609375 35.839844 85.003906 L 64.800781 113.261719 L 34.90625 141.054688 C 25.804688 149.519531 42.667969 166.886719 51.722656 158.105469 Z M 97.964844 113.261719 " fill-opacity="1" fill-rule="nonzero"/><g fill="#0a1e34" fill-opacity="1"><g transform="translate(229.140505, 140.615025)"><g><path d="M 9.195312 0 L 56.6875 0 L 56.6875 -12.125 L 22.027344 -12.125 L 22.027344 -29.808594 L 54.3125 -29.808594 L 54.3125 -41.582031 L 22.027344 -41.582031 L 22.027344 -59.621094 L 56.6875 -59.621094 L 56.6875 -71.390625 L 9.195312 -71.390625 Z M 9.195312 0 "/></g></g></g><g fill="#0a1e34" fill-opacity="1"><g transform="translate(292.038632, 140.615025)"><g><path d="M 20.160156 0 L 30.316406 0 L 50.929688 -50.472656 L 37.539062 -50.472656 L 25.261719 -15.914062 L 13.035156 -50.472656 L -0.402344 -50.472656 Z M 20.160156 0 "/></g></g></g><g fill="#0a1e34" fill-opacity="1"><g transform="translate(342.5087, 140.615025)"><g><path d="M 28.34375 1.011719 C 36.832031 1.011719 43.550781 -1.96875 49.058594 -8.085938 L 40.570312 -15.511719 C 37.035156 -11.570312 32.992188 -10.15625 28.445312 -10.15625 C 20.511719 -10.15625 16.875 -14.601562 15.8125 -21.21875 L 50.472656 -21.21875 C 50.726562 -21.929688 50.929688 -24 50.929688 -26.070312 C 50.929688 -37.339844 45.21875 -51.535156 27.535156 -51.535156 C 10.457031 -51.535156 2.777344 -38.195312 2.777344 -25.058594 C 2.777344 -11.46875 10.964844 1.011719 28.34375 1.011719 Z M 15.8125 -30.113281 C 16.976562 -36.429688 20.160156 -41.179688 27.433594 -41.179688 C 33.851562 -41.179688 37.996094 -37.339844 38.804688 -30.113281 Z M 15.8125 -30.113281 "/></g></g></g><g fill="#0a1e34" fill-opacity="1"><g transform="translate(396.414168, 140.615025)"><g><path d="M 7.324219 0 L 19.554688 0 L 19.554688 -27.636719 C 19.554688 -36.429688 24 -40.167969 30.921875 -40.167969 C 37.238281 -40.167969 40.570312 -35.367188 40.570312 -28.75 L 40.570312 0 L 52.75 0 L 52.75 -30.316406 C 52.75 -40.875 47.695312 -51.535156 34.457031 -51.535156 C 29.507812 -51.535156 23.59375 -49.566406 19.554688 -44.613281 L 19.554688 -50.472656 L 7.324219 -50.472656 Z M 7.324219 0 "/></g></g></g><g fill="#0a1e34" fill-opacity="1"><g transform="translate(455.068567, 140.615025)"><g><path d="M 25.261719 1.011719 C 28.75 1.011719 32.488281 0.203125 34.355469 -0.503906 L 34.355469 -11.671875 C 32.691406 -10.863281 29.910156 -9.851562 27.335938 -9.851562 C 24.101562 -9.851562 21.625 -11.265625 21.625 -16.117188 L 21.625 -40.167969 L 34.355469 -40.167969 L 34.355469 -50.472656 L 21.625 -50.472656 L 21.625 -71.796875 L 9.601562 -63.003906 L 9.601562 -50.472656 L 1.261719 -50.472656 L 1.261719 -40.167969 L 9.398438 -40.167969 L 9.398438 -13.945312 C 9.398438 -4.75 15.308594 1.011719 25.261719 1.011719 Z M 25.261719 1.011719 "/></g></g></g><g fill="#0a1e34" fill-opacity="1"><g transform="translate(493.187509, 140.615025)"><g><path d="M 9.195312 0 L 22.027344 0 L 22.027344 -29.808594 L 55.375 -29.808594 L 55.375 -41.582031 L 22.027344 -41.582031 L 22.027344 -59.621094 L 59.820312 -59.621094 L 59.820312 -71.390625 L 9.195312 -71.390625 Z M 9.195312 0 "/></g></g></g><g fill="#0a1e34" fill-opacity="1"><g transform="translate(555.58043, 140.615025)"><g><path d="M 17.582031 1.011719 C 20.511719 1.011719 24.203125 0.503906 26.777344 0 L 26.777344 -10.359375 C 25.464844 -10.15625 24.101562 -10.054688 23.394531 -10.054688 C 20.917969 -10.054688 19.351562 -11.066406 19.351562 -13.441406 L 19.351562 -71.390625 L 7.023438 -71.390625 L 7.023438 -10.054688 C 7.023438 -1.160156 11.773438 1.011719 17.582031 1.011719 Z M 17.582031 1.011719 "/></g></g></g><g fill="#0a1e34" fill-opacity="1"><g transform="translate(584.528737, 140.615025)"><g><path d="M 28.445312 1.011719 C 44.058594 1.011719 54.3125 -11.066406 54.3125 -25.363281 C 54.3125 -39.613281 44.058594 -51.535156 28.445312 -51.535156 C 12.832031 -51.535156 2.578125 -39.613281 2.578125 -25.363281 C 2.578125 -11.066406 12.832031 1.011719 28.445312 1.011719 Z M 28.445312 -9.601562 C 19.148438 -9.601562 15.410156 -17.078125 15.410156 -25.363281 C 15.410156 -33.648438 19.148438 -40.875 28.445312 -40.875 C 37.792969 -40.875 41.480469 -33.648438 41.480469 -25.363281 C 41.480469 -17.078125 37.792969 -9.601562 28.445312 -9.601562 Z M 28.445312 -9.601562 "/></g></g></g><g fill="#0a1e34" fill-opacity="1"><g transform="translate(641.515936, 140.615025)"><g><path d="M 16.015625 0.203125 L 27.132812 0.203125 L 37.035156 -33.09375 L 46.988281 0 L 58.054688 0 L 73.664062 -50.472656 L 60.527344 -50.472656 L 51.839844 -18.945312 L 42.339844 -50.472656 L 31.78125 -50.472656 L 22.230469 -18.847656 L 13.640625 -50.472656 L 0.503906 -50.472656 Z M 16.015625 0.203125 "/></g></g></g></svg>